# xmcd CD database file
#
# Track frame offsets:
#	150
#	15384
#	34994
#	50112
#	67598
#	81266
#	96785
#	112989
#	135599
#	150889
#	170346
#	185492
#
# Disc length: 2693 seconds
#
# Revision: 0
# Processed by: cddbd v1.5.2PL0 Copyright (c) Steve Scherf et al.
# Submitted via: CDex 1.51
#
DISCID=8b0a830c
DTITLE=Pinetop Perkins  - Heaven
DYEAR=2012
DGENRE=Blues
TTITLE0=44 Blues
TTITLE1=4 O'Clock in the Morning
TTITLE2=Relaxin'
TTITLE3=Sitting On Top of the World
TTITLE4=Just Keep On Drinking
TTITLE5=Since I Fell For You
TTITLE6=Pinetop's Boogie Woogie
TTITLE7=Ida B
TTITLE8=Sweet Home Chicago
TTITLE9=Pinetop's Blues
TTITLE10=Willow Weep For Me
TTITLE11=	 - That's All Right
EXTD=YEAR: 2012
EXTT0=
EXTT1=
EXTT2=
EXTT3=
EXTT4=
EXTT5=
EXTT6=
EXTT7=
EXTT8=
EXTT9=
EXTT10=
EXTT11=
PLAYORDER=
